<?xml version="1.0" encoding="UTF-8"?>
<svg id="Layer_3" data-name="Layer 3" xmlns="http://www.w3.org/2000/svg" viewBox="0 0 1010.69 1010.69">
  <defs>
    <style>
      .cls-1 { fill: #f8fafc; }
      .cls-2 { fill: #ffb715; }
    </style>
  </defs>
  <g id="yBGnqH">
    <g>
      <path class="cls-1" d="M528.03,478.99c17.96-40.91,38.32-79.03,65.92-113.72,52.12-65.51,122.86-110.32,206.07-114.83,21.29-1.15,40.38,13.73,40.4,37.07l.2,193.19c-3.24,34.39-27.88,63.96-61.8,64.38l-81.02,1.01,60.25,52.8c53.61,46.98,36.18,139.95-11.51,188.83-19.89,20.38-45.14,32.69-72.76,34.34-33.98,2.03-64.23-15.49-79.94-46.25l-66.03-129.36M481.44,646.96l-62.11,122.77c-20.17,39.86-59.98,61.43-103.12,49.08-61.62-16.86-98.86-84.92-96.18-149.22,1.16-27.81,12.54-52.82,32.63-70.4l60.63-53.06-79.86-1.07c-36.41-.49-63.45-32.62-63.36-70.12l.06-187.46c0-22.48,17.9-37.74,38.71-36.86,41.62,1.76,80.37,13.6,116.63,34.94,77.01,45.32,119.28,112.67,155.63,192.73"/>
      <path class="cls-1" d="M543.35,374.19c-4.48-4.43-8.69-9.43-13.35-15.25,32.32-50.65,71.68-93.5,120.93-125.85,36.47-23.95,76.6-37.81,119.48-44.69l.22,45c-89.98,16.51-168.89,64.84-227.29,140.79Z"/>
      <path class="cls-1" d="M479.21,359.39l-12.49,15.76c-57.25-74.48-137.3-125.29-227.97-141.83l.14-44.87c104.6,15.21,182.66,81.39,240.32,170.94Z"/>
    </g>
  </g>
  <circle class="cls-2" cx="334.71" cy="679.65" r="45.88"/>
  <circle class="cls-2" cx="670.69" cy="679.65" r="45.88"/>
  <rect class="cls-1" x="480.15" y="378.04" width="50.4" height="437.19" rx="25.2" ry="25.2"/>
  <circle class="cls-2" cx="263.66" cy="368.65" r="45.88"/>
  <circle class="cls-2" cx="747.87" cy="368.65" r="45.88"/>
</svg>
