<?xml version="1.0" encoding="UTF-8"?>
<svg id="Layer_3" data-name="Layer 3" xmlns="http://www.w3.org/2000/svg" viewBox="0 0 1010.69 1010.69">
  <defs>
    <linearGradient id="lightBlueGradient" x1="0%" y1="0%" x2="100%" y2="100%">
      <stop offset="0%" stop-color="#3b82f6" />
      <stop offset="100%" stop-color="#93c5fd" />
    </linearGradient>
    <style>
      .cls-1 {
        fill: url(#lightBlueGradient);
      }
    </style>
  </defs>
  <g id="yBGnqH">
    <g>
      <path class="cls-1" d="M543.35,374.19c-4.48-4.43-8.69-9.43-13.35-15.25,32.32-50.65,71.68-93.5,120.93-125.85,36.47-23.95,76.6-37.81,119.48-44.69l.22,45c-89.98,16.51-168.89,64.84-227.29,140.79Z"/>
      <path class="cls-1" d="M479.21,359.39l-12.49,15.76c-57.25-74.48-137.3-125.29-227.97-141.83l.14-44.87c104.6,15.21,182.66,81.39,240.32,170.94Z"/>
    </g>
  </g>
  <rect class="cls-1" x="480.15" y="378.04" width="50.4" height="437.19" rx="25.2" ry="25.2"/>
  <g>
    <path class="cls-1" d="M325.47,285.56c-36.26-21.34-75.01-33.18-116.63-34.94-20.81-.88-38.7,14.38-38.71,36.86l-.06,187.46c-.09,37.5,26.95,69.63,63.36,70.12l79.86,1.07-60.63,53.06c-20.1,17.59-31.48,42.59-32.63,70.4-2.67,64.3,34.56,132.36,96.18,149.22,43.15,12.35,82.96-9.22,103.12-49.08l62.11-122.77-.35-168.67c-36.35-80.06-78.62-147.41-155.63-192.73ZM263.66,414.53c-25.34,0-45.88-20.54-45.88-45.88s20.54-45.88,45.88-45.88,45.88,20.54,45.88,45.88-20.54,45.88-45.88,45.88ZM334.71,725.54c-25.34,0-45.88-20.54-45.88-45.88s20.54-45.88,45.88-45.88,45.88,20.54,45.88,45.88-20.54,45.88-45.88,45.88Z"/>
    <path class="cls-1" d="M840.62,480.71l-.2-193.19c-.02-23.34-19.11-38.23-40.4-37.07-83.21,4.5-153.95,49.32-206.07,114.83-27.6,34.69-47.96,72.81-65.92,113.72l-.2,167.49,66.03,129.36c15.7,30.76,45.95,48.28,79.94,46.25,27.62-1.65,52.87-13.96,72.76-34.34,47.69-48.88,65.12-141.85,11.51-188.83l-60.25-52.8,81.02-1.01c33.92-.42,58.56-29.99,61.8-64.38ZM716.57,679.65c0,25.34-20.54,45.88-45.88,45.88s-45.88-20.54-45.88-45.88,20.54-45.88,45.88-45.88,45.88,20.54,45.88,45.88ZM701.98,368.65c0-25.34,20.54-45.88,45.88-45.88s45.88,20.54,45.88,45.88-20.54,45.88-45.88,45.88-45.88-20.54-45.88-45.88Z"/>
  </g>
</svg>